<svg xmlns="http://www.w3.org/2000/svg" width="608.98" height="407.106" viewBox="0 0 161.126 107.713"><path d="M40.196 84.075c-8.924 14.247 1.588 22.578 10.252 27.236 20.428 8.722 43.872-9.859 57.45-10.108 10.355-.19 17.73 9.379 16.397 18.32-2.508 16.81-23.395 33.064-17.047 46.707 3.157 5.136 12.091 9.67 22.846 15.355 11.444 6.05 21.412 10.434 38.412 9.957 8.517-1.091 17.516-6.54 24.588-15.58" style="fill:none;stroke:#961591;stroke-width:.264583px;stroke-linecap:butt;stroke-linejoin:miter;stroke-opacity:1" transform="translate(-32.072 -83.996)"/><path d="M38.887 84.075c-11.014 18.517-.07 26.092 8.594 30.75 20.429 8.722 31.74-5.192 57.451-10.109 8.45-1.616 17.73 9.38 16.396 18.32-2.508 16.81-18.108 26.66-11.76 40.304 4.068 4.863 13.5 9.524 24.669 15.287 12.807 6.608 20.318 9.614 35.222 9.046 8.517-1.092 15.378-4.89 23.635-13.202" style="fill:none;stroke:#961591;stroke-width:.264583px;stroke-linecap:butt;stroke-linejoin:miter;stroke-opacity:1" transform="translate(-32.072 -83.996)"/><path d="M39.427 84.075c-15.596 21.226-2.366 29.512 6.299 34.17 20.428 8.722 30.774-3.926 56.91-9.913 7.633-1.748 18.21 8.72 16.875 17.66-2.507 16.81-13.295 23.471-6.827 34.18 5.83 5.625 9.642 7.418 21.02 13.086 12.28 6.117 18.949 10.655 35.83 11.077 8.516-1.092 16.128-2.885 23.56-10.967M164.038 185.03" style="fill:none;stroke:#961591;stroke-width:.264583px;stroke-linecap:butt;stroke-linejoin:miter;stroke-opacity:1" transform="translate(-32.072 -83.996)"/></svg>