<svg width="126.002" height="504.802" viewBox="0 0 33.338 133.562" xmlns="http://www.w3.org/2000/svg"><path style="fill:none;stroke:#961591;stroke-width:.264583px;stroke-linecap:butt;stroke-linejoin:miter;stroke-opacity:1" d="M103.842 213.665s24.937-23.713 23.194-41.839c-2.088-21.712-23.307-23.048-24.015-38.022-.731-15.454 25.503-26.615 20.97-41.407-5.851-19.093-25.134-9.808-25.134-9.808" transform="translate(-98.79 -80.2)"/><path style="fill:none;stroke:#961591;stroke-width:.264583px;stroke-linecap:butt;stroke-linejoin:miter;stroke-opacity:1" d="M106.005 213.665s26.073-24.73 23.411-42.297c-.504-3.33-1.004-6.286-2.167-8.664-8.1-16.567-21.412-16.185-22.065-29.25-.773-15.452 25.462-26.602 20.97-41.407-5.851-19.284-27.297-8.068-27.297-8.068" transform="translate(-98.79 -80.2)"/><path style="fill:none;stroke:#961591;stroke-width:.264583px;stroke-linecap:butt;stroke-linejoin:miter;stroke-opacity:1" d="M108.066 213.665s26.432-25.042 23.736-41.32c-4.36-26.332-23.833-23.576-24.557-38.89-.73-15.455 25.497-26.614 20.97-41.408-6.234-20.367-29.358-6.973-29.358-6.973" transform="translate(-98.79 -80.2)"/></svg>